<svg xmlns="http://www.w3.org/2000/svg" xmlns:xlink="http://www.w3.org/1999/xlink" viewBox="0 0 131.42 60" width="131" height="60"><defs><clipPath id="d"><path d="M25.61 32.84h2.63c.69 0 1.22.53 1.22 1.22s-.53 1.22-1.22 1.22h-2.63v-2.44Zm-1.17-1.06v7.44h1.17v-2.87h2.36l1.59 2.87h1.28l-1.7-2.98s1.49-.53 1.49-2.18c0-1.28-1.01-2.29-2.39-2.29h-3.8ZM7.61 35.5c0 2.13 1.7 3.83 3.93 3.83 2.02 0 3.08-1.49 3.08-1.49l-.74-.74s-.8 1.17-2.34 1.17-2.76-1.22-2.76-2.76 1.22-2.76 2.76-2.76 2.29 1.12 2.29 1.12l.74-.74s-1.01-1.44-3.03-1.44c-2.23 0-3.93 1.7-3.93 3.83m8.9 0c0-1.54 1.22-2.76 2.76-2.76s2.76 1.22 2.76 2.76-1.22 2.76-2.76 2.76-2.76-1.22-2.76-2.76m-1.17 0c0 2.13 1.7 3.83 3.93 3.83s3.93-1.7 3.93-3.83-1.7-3.83-3.93-3.83-3.93 1.7-3.93 3.83m20.37-2.76c1.37 0 2.48.96 2.72 2.26h-5.44a2.745 2.745 0 0 1 2.72-2.26m-3.93 2.76c0 2.13 1.7 3.83 3.93 3.83 1.64 0 2.66-.64 3.36-1.46l-.91-.69c-.64.8-1.44 1.11-2.45 1.11A2.75 2.75 0 0 1 33 36.06h6.61c.02-.17.04-.35.04-.53 0-2.13-1.7-3.83-3.93-3.83s-3.93 1.7-3.93 3.83" fill="none"/></clipPath><clipPath id="g"><path fill="none" d="M87.78 15.43h40.04v40.04H87.78z"/></clipPath><clipPath id="h"><path fill="none" d="M87.78 15.43h40.04v40.04H87.78z"/></clipPath><clipPath id="i"><path fill="none" d="M87.78 15.43h40.04v40.04H87.78z"/></clipPath><clipPath id="j"><path d="M109.79 32.84h2.63c.69 0 1.22.53 1.22 1.22s-.53 1.22-1.22 1.22h-2.63v-2.44Zm-1.17-1.06v7.44h1.17v-2.87h2.36l1.59 2.87h1.28l-1.7-2.98s1.49-.53 1.49-2.18c0-1.28-1.01-2.29-2.39-2.29h-3.8ZM91.79 35.5c0 2.13 1.7 3.83 3.93 3.83 2.02 0 3.08-1.49 3.08-1.49l-.74-.74s-.8 1.17-2.34 1.17-2.76-1.22-2.76-2.76 1.22-2.76 2.76-2.76 2.29 1.12 2.29 1.12l.74-.74s-1.01-1.44-3.03-1.44c-2.23 0-3.93 1.7-3.93 3.83m8.9 0c0-1.54 1.22-2.76 2.76-2.76s2.76 1.22 2.76 2.76-1.22 2.76-2.76 2.76-2.76-1.22-2.76-2.76m-1.17 0c0 2.13 1.7 3.83 3.93 3.83s3.93-1.7 3.93-3.83-1.7-3.83-3.93-3.83-3.93 1.7-3.93 3.83m20.37-2.76c1.37 0 2.48.96 2.72 2.26h-5.44a2.745 2.745 0 0 1 2.72-2.26m-3.93 2.76c0 2.13 1.7 3.83 3.93 3.83 1.64 0 2.66-.64 3.36-1.46l-.91-.69c-.64.8-1.44 1.11-2.45 1.11a2.75 2.75 0 0 1-2.71-2.25h6.61c.02-.17.04-.35.04-.53 0-2.13-1.7-3.83-3.93-3.83s-3.93 1.7-3.93 3.83" fill="none"/></clipPath><clipPath id="l"><path fill="none" d="M87.78 15.43h40.04v40.04H87.78z"/></clipPath><clipPath id="o"><path fill="none" d="M42.25 11.76h47.92v47.92H42.25z"/></clipPath><clipPath id="p"><path fill="none" d="M42.25 11.76h47.92v47.92H42.25z"/></clipPath><clipPath id="q"><path d="M68.6 32.59h3.15c.83 0 1.46.64 1.46 1.46s-.64 1.46-1.46 1.46H68.6v-2.93Zm-1.4-1.27v8.91h1.4v-3.44h2.83l1.91 3.44h1.53l-2.04-3.56s1.78-.64 1.78-2.61c0-1.53-1.21-2.74-2.86-2.74H67.2Zm-20.15 4.45c0 2.54 2.04 4.58 4.71 4.58 2.42 0 3.69-1.78 3.69-1.78l-.89-.89s-.95 1.4-2.8 1.4-3.31-1.46-3.31-3.31 1.46-3.31 3.31-3.31 2.74 1.34 2.74 1.34l.89-.89s-1.21-1.72-3.63-1.72c-2.67 0-4.71 2.04-4.71 4.58m10.65 0c0-1.84 1.46-3.31 3.31-3.31s3.31 1.46 3.31 3.31-1.46 3.31-3.31 3.31-3.31-1.46-3.31-3.31m-1.4 0c0 2.54 2.04 4.58 4.71 4.58s4.71-2.04 4.71-4.58-2.04-4.58-4.71-4.58-4.71 2.04-4.71 4.58m24.38-3.31c1.64 0 2.97 1.15 3.25 2.7h-6.51c.28-1.55 1.62-2.7 3.25-2.7m-4.71 3.31c0 2.54 2.04 4.58 4.71 4.58 1.96 0 3.19-.77 4.02-1.75l-1.08-.83c-.77.96-1.73 1.33-2.93 1.33-1.63 0-2.95-1.16-3.25-2.69h7.91c.03-.21.04-.42.04-.64 0-2.54-2.04-4.58-4.71-4.58s-4.71 2.04-4.71 4.58" fill="none"/></clipPath><clipPath id="s"><path fill="none" d="M42.25 11.76h47.92v47.92H42.25z"/></clipPath><linearGradient id="b" x1="13.59" y1="35.45" x2="43.25" y2="35.45" gradientUnits="userSpaceOnUse"><stop offset="0" stop-color="#1b63a6"/><stop offset=".45" stop-color="#1b92da"/><stop offset=".56" stop-color="#1c93db"/><stop offset="1" stop-color="#0177b7"/></linearGradient><linearGradient id="c" x1="3.6" y1="15.43" x2="43.64" y2="55.47" gradientUnits="userSpaceOnUse"><stop offset="0" stop-color="#1b62a6"/><stop offset=".45" stop-color="#1a92d8"/><stop offset=".55" stop-color="#1c93da"/><stop offset="1" stop-color="#0178b7"/></linearGradient><linearGradient id="e" x1="37.86" y1="1.36" x2="38" y2="1.36" gradientTransform="matrix(0 -168.08 -168.08 0 251.59 6419.15)" gradientUnits="userSpaceOnUse"><stop offset="0" stop-color="#00a9ea"/><stop offset="1" stop-color="#fff"/></linearGradient><linearGradient id="f" x1="87.78" y1="15.43" x2="127.82" y2="55.47" gradientUnits="userSpaceOnUse"><stop offset="0" stop-color="#0089c9"/><stop offset=".45" stop-color="#00b0f0"/><stop offset=".55" stop-color="#00aff0"/><stop offset="1" stop-color="#009bda"/></linearGradient><linearGradient id="k" x1="37.85" y1=".86" x2="37.99" y2=".86" gradientTransform="matrix(0 -166.13 -166.13 0 251.07 6343.48)" gradientUnits="userSpaceOnUse"><stop offset="0" stop-color="#00c1ff"/><stop offset="1" stop-color="#fff"/></linearGradient><linearGradient id="m" x1="42.79" y1="12.29" x2="89.95" y2="59.46" gradientUnits="userSpaceOnUse"><stop offset="0" stop-color="#083f90"/><stop offset=".45" stop-color="#0a63c5"/><stop offset=".55" stop-color="#0a64c8"/><stop offset="1" stop-color="#004fa3"/></linearGradient><linearGradient id="a" x1="94.79" y1="35.45" x2="88.78" y2="35.45" gradientUnits="userSpaceOnUse"><stop offset="0" stop-opacity="0"/><stop offset=".99" stop-opacity=".99"/><stop offset="1"/></linearGradient><linearGradient id="n" x1="-226.22" y1="22.06" x2="-232.23" y2="22.06" gradientTransform="translate(268.46 13.39)" xlink:href="#a"/><linearGradient id="r" x1="37.84" y1="1.1" x2="38.01" y2="1.1" gradientTransform="matrix(0 -169.06 -169.06 0 252.54 6457.21)" gradientUnits="userSpaceOnUse"><stop offset="0" stop-color="#0078dc"/><stop offset="1" stop-color="#fff"/></linearGradient></defs><path fill="url(#b)" d="M3.6 15.43h40.04v40.04H3.6z"/><path fill="url(#c)" d="M3.6 15.43h40.04v40.04H3.6z"/><path fill="#00a9ea" d="M3.6 46.27h30.83v9.21H3.6zm30.83-30.84h9.21v30.83h-9.21z"/><path d="M40.32 50.08c-.68-.08-.98.16-1.03.26l.07-.91h1.99v-.88h-2.8l-.17 2.58.68.11c.24-.35.66-.46 1.04-.37.35.08.74.48.54 1.05-.14.4-.57.59-.96.52-.32-.06-.56-.22-.89-.49l-.6.59c.36.45.88.8 1.86.8.83 0 1.5-.54 1.62-1.47.11-.85-.48-1.67-1.35-1.77m-3.62.08h.97v2.98h-.97zm-.03-1.64h1.03v1.03h-1.03z" fill="#fff"/><g clip-path="url(#d)"><path fill="url(#e)" d="M7.6 31.67h32.03v7.65H7.6z"/></g><path fill="#fff" d="M39.56 31.77v.09h-.18v.52h-.1v-.52h-.18v-.09h.46zm.66 0h.08v.61h-.09v-.44l-.23.28-.22-.28v.44h-.09v-.61h.08l.23.3.24-.3zM8.05 19.01h.98v.98h-.98zM9 20.59h-.93v3.54H9v-3.54Zm6.18 3.57v-.87c-.14 0-.25 0-.34-.02a.41.41 0 0 1-.22-.1.413.413 0 0 1-.1-.21c-.01-.09-.02-.2-.02-.34v-1.24h.67v-.8h-.67V19.2h-.93v3.42c0 .29.03.53.07.73.05.19.13.35.25.47s.27.2.46.26c.19.05.43.08.71.08h.12Zm5.34-5.23h-.93v5.19h.93v-5.19Zm-7.85 2c-.26-.28-.62-.42-1.08-.42-.22 0-.43.05-.61.14-.18.09-.34.22-.46.38l-.05.07v-.51h-.92v3.54h.93v-1.81c0-.33.09-.58.25-.73.16-.17.36-.25.59-.25.27 0 .47.08.61.24.13.16.2.39.2.68v1.88h.94v-2.01c0-.5-.13-.9-.39-1.18m6.43 1.41c0-.25-.05-.49-.13-.72a1.77 1.77 0 0 0-.38-.58c-.16-.17-.35-.3-.58-.39-.22-.09-.47-.14-.74-.14-.25 0-.5.05-.72.15-.22.1-.42.23-.58.39-.16.16-.3.36-.39.58-.1.22-.15.46-.15.72s.05.5.14.72a1.736 1.736 0 0 0 .97.97c.23.1.49.15.76.15.79 0 1.28-.36 1.57-.69l-.67-.51c-.14.17-.48.4-.9.4-.26 0-.48-.06-.64-.18a.952.952 0 0 1-.34-.49v-.03h2.77v-.33Zm-2.77-.32c0-.26.3-.71.94-.71.64 0 .94.45.94.71h-1.88Zm5.27 1.19c.23 0 .42.19.42.42s-.19.42-.42.42-.42-.19-.42-.42.19-.42.42-.42m0-.07a.49.49 0 1 0 .002.982.49.49 0 0 0-.002-.982"/><path d="M21.65 23.41s.06 0 .08.02c.02.01.04.03.06.06.01.02.02.05.02.08 0 .04 0 .07-.03.09a.18.18 0 0 1-.07.05l.11.2h-.09l-.1-.18h-.12v.18h-.08v-.49h.2Zm0 .24s.03 0 .04-.01c.01 0 .02-.02.03-.03 0-.01.01-.03.01-.04s0-.03-.01-.04c0-.01-.02-.02-.03-.03-.01 0-.03-.01-.04-.01h-.13v.17h.13Z" fill="#fff"/><path opacity=".5" d="M42.25 59.68h47.92v.3H42.25zm45.53-4.21h40.04v.3H87.78zm-84.18 0h40.04v.3H3.6z"/><path fill="url(#f)" d="M87.78 15.43h40.04v40.04H87.78z"/><g clip-path="url(#g)"><g clip-path="url(#h)"><path fill="#00c1ff" d="M87.78 46.27h30.83v9.21H87.78zm30.83-30.84h9.21v30.83h-9.21z"/><path fill="#fff" d="M120.88 50.18h.97v2.98h-.97zm-.03-1.64h1.03v1.03h-1.03z"/><g clip-path="url(#i)"><path d="M124.86 50.85c.46-.17.74-.59.75-1.05 0-.76-.61-1.35-1.64-1.35-.65 0-1.27.38-1.57.8l.58.56c.27-.29.53-.49 1.06-.48.3 0 .63.22.63.54 0 .41-.25.59-.66.59h-.44v.79h.44c.47 0 .72.18.72.59 0 .33-.3.6-.69.6-.53 0-.85-.22-1.17-.5l-.6.59c.3.43.95.8 1.7.8 1.03 0 1.76-.62 1.76-1.38 0-.55-.36-.95-.86-1.1" fill="#fff"/></g><g clip-path="url(#j)"><path fill="url(#k)" d="M91.79 31.67h32.03v7.65H91.79z"/></g><g clip-path="url(#l)" fill="#fff"><path d="M123.75 31.77v.09h-.18v.52h-.1v-.52h-.18v-.09h.46zm.66 0h.08v.61h-.1v-.44l-.22.28-.22-.28v.44h-.1v-.61h.09l.23.3.24-.3zM92.23 19.01h.98v.98h-.98zm.96 1.58h-.93v3.54h.93v-3.54Zm6.18 3.57v-.87c-.14 0-.25 0-.34-.02a.41.41 0 0 1-.22-.1.413.413 0 0 1-.1-.21c-.01-.09-.02-.2-.02-.34v-1.24h.67v-.8h-.67V19.2h-.93v3.42c0 .29.03.53.07.73.05.19.13.35.25.47s.27.2.46.26c.19.05.43.08.71.08h.12Zm5.34-5.23h-.93v5.19h.93v-5.19Zm-7.85 2c-.26-.28-.62-.42-1.08-.42-.22 0-.43.05-.61.14-.18.09-.34.22-.46.38l-.05.07v-.51h-.92v3.54h.93v-1.81c0-.33.09-.58.25-.73.16-.17.36-.25.59-.25.27 0 .47.08.61.24.13.16.2.39.2.68v1.88h.94v-2.01c0-.5-.13-.9-.39-1.18m6.43 1.41c0-.25-.05-.49-.13-.72a1.77 1.77 0 0 0-.38-.58c-.16-.17-.35-.3-.58-.39-.22-.09-.47-.14-.74-.14-.25 0-.5.05-.72.15-.22.1-.42.23-.58.39-.16.16-.3.36-.39.58-.1.22-.15.46-.15.72s.05.5.14.72a1.736 1.736 0 0 0 .97.97c.23.1.49.15.76.15.79 0 1.28-.36 1.57-.69l-.67-.51c-.14.17-.48.4-.9.4-.26 0-.48-.06-.64-.18a.952.952 0 0 1-.34-.49v-.03h2.77v-.33Zm-2.77-.32c0-.26.3-.71.94-.71.64 0 .94.45.94.71h-1.88Zm5.26 1.19c.23 0 .42.19.42.42s-.19.42-.42.42-.42-.19-.42-.42.19-.42.42-.42m0-.07a.49.49 0 1 0 .002.982.49.49 0 0 0-.002-.982"/><path d="M105.83 23.41s.06 0 .08.02c.02.01.04.03.06.06.01.02.02.05.02.08 0 .04 0 .07-.03.09a.18.18 0 0 1-.07.05l.11.2h-.09l-.1-.18h-.12v.18h-.08v-.49h.2Zm0 .24s.03 0 .04-.01c.01 0 .02-.02.03-.03 0-.01.01-.03.01-.04s0-.03-.01-.04c0-.01-.02-.02-.03-.03-.01 0-.03-.01-.04-.01h-.13v.17h.13Z"/></g></g></g><path fill="url(#m)" d="M42.25 11.76h47.92v47.92H42.25z"/><path fill="url(#a)" opacity=".5" d="M90.18 15.43h4.63v40.04h-4.63z"/><path transform="rotate(180 39.94 35.455)" fill="url(#n)" opacity=".5" d="M37.63 15.43h4.63v40.04h-4.63z"/><g clip-path="url(#o)"><g clip-path="url(#p)"><path fill="#0078dc" d="M42.25 48.66h36.9v11.02h-36.9zm36.91-36.9h11.02v36.9H79.16z"/><path fill="#fff" d="M81.87 53.35h1.16v3.57h-1.16zm-.03-1.97h1.23v1.23h-1.23zm2.08 0v1.06h2.52l-1.98 4.49h1.22l1.97-4.49v-1.06h-3.73z"/><g clip-path="url(#q)"><path fill="url(#r)" d="M47.05 31.19h38.34v9.16H47.05z"/></g><g clip-path="url(#s)" fill="#fff"><path d="M85.3 31.32v.1h-.22v.63h-.11v-.63h-.22v-.1h.55zm.79 0h.1v.73h-.12v-.54l-.26.34-.27-.34v.54h-.11v-.73h.09l.29.35.28-.35zM47.58 16.04h1.18v1.18h-1.18zm1.15 1.89h-1.12v4.24h1.12v-4.24Zm7.4 4.28v-1.04c-.16 0-.3 0-.4-.03a.452.452 0 0 1-.26-.12.453.453 0 0 1-.12-.25c-.02-.1-.03-.24-.03-.41v-1.48h.81v-.95h-.81v-1.65H54.2v4.09c0 .35.03.64.09.87.06.23.16.42.3.56s.32.24.54.31c.23.06.51.09.85.09h.14Zm6.39-6.25H61.4v6.21h1.12v-6.21Zm-9.39 2.39c-.31-.33-.75-.5-1.3-.5-.27 0-.51.05-.73.16-.22.11-.41.26-.55.45l-.06.08v-.61h-1.1v4.24h1.11v-2.18c.01-.4.11-.69.29-.88.2-.2.43-.3.71-.3.32 0 .57.1.73.29.16.19.24.46.24.81v2.25h1.13v-2.4c0-.6-.16-1.08-.47-1.41m7.7 1.69c0-.3-.05-.59-.16-.86-.11-.26-.26-.5-.45-.7-.19-.2-.42-.36-.69-.47a2.351 2.351 0 0 0-1.75 0c-.27.12-.5.27-.7.47-.2.2-.36.43-.47.7-.12.27-.17.56-.17.86s.06.59.17.86c.11.27.26.5.46.7.19.2.43.36.71.47.28.12.58.17.91.17.94 0 1.53-.43 1.88-.83l-.8-.61c-.17.2-.57.47-1.07.47-.31 0-.57-.07-.77-.22-.2-.14-.33-.34-.4-.59v-.04h3.32v-.4Zm-3.32-.39c0-.31.36-.85 1.12-.85.77 0 1.12.54 1.12.85H57.5Zm6.3 1.44c.28 0 .51.23.51.51s-.23.51-.51.51-.51-.23-.51-.51.23-.51.51-.51m0-.08c-.33 0-.59.26-.59.59s.26.59.59.59.59-.26.59-.59-.26-.59-.59-.59"/><path d="M63.86 21.3s.07 0 .1.02.05.04.07.07c.02.03.02.06.02.09 0 .04-.01.08-.03.11-.02.03-.05.05-.08.06l.13.24h-.11l-.12-.22h-.14v.22h-.09v-.59h.25Zm0 .29s.04 0 .05-.01c.02 0 .03-.02.04-.04 0-.02.01-.03.01-.05s0-.04-.01-.05c0-.02-.02-.03-.04-.04-.02 0-.03-.01-.05-.01h-.15v.2h.15Z"/></g></g></g></svg>